<mxfile host="drawio-plugin" modified="2024-04-10T07:44:09.597Z" agent="5.0 (Macintosh; Intel Mac OS X 10_15_7) AppleWebKit/537.36 (KHTML, like Gecko) Chrome/111.0.0.0 Safari/537.36" version="20.5.3" etag="Jh0AXuxFmRfsL38kr-DO" type="embed"><diagram id="LlsoEHjb_hqyAwGNz2Ea" name="Page-1"><mxGraphModel dx="832" dy="750" grid="1" gridSize="10" guides="1" tooltips="1" connect="1" arrows="1" fold="1" page="1" pageScale="1" pageWidth="850" pageHeight="1100" math="0" shadow="0"><root><mxCell id="0"/><mxCell id="1" parent="0"/></root></mxGraphModel></diagram></mxfile>